<svg xmlns="http://www.w3.org/2000/svg" version="1.1" xmlns:xlink="http://www.w3.org/1999/xlink" xmlns:svgjs="http://svgjs.com/svgjs" width="512" height="512" x="0" y="0" viewBox="0 0 53 53" style="enable-background:new 0 0 512 512" xml:space="preserve" class=""><g><g id="_x32_83"><g><path d="m50.5 23.4165878v17.6473198c0 2.0581856-1.6608009 3.7189903-3.7087898 3.7189903h-1.8543968v4.5238304c0 .4993744-.560379.7845688-.9678993.4891739l-6.7552757-5.0130043h-12.2471276c-2.0479889 0-3.7087917-1.6608047-3.7087917-3.7189903v-17.6473198c0-2.047987 1.6608028-3.7188644 3.7087917-3.7188644h21.8246994c2.0479889 0 3.7087898 1.6708774 3.7087898 3.7188644z" fill="#a2a2f9" data-original="#a2a2f9"></path></g><g><path d="m37.0403824 19.6977234v8.9255238c0 2.3433838-1.9053268 4.238512-4.2385712 4.238512h-11.5440922v-1.4671478h9.7915611c2.3333073 0 4.2386341-1.8951283 4.2386341-4.238636v-7.458252z" fill="#7979f7" data-original="#7979f7"></path></g><g><path d="m48.0444908 19.9218502c.3565903.560442.5705795 1.2328224.5705795 1.9663963v17.6575184c0 2.0483093-1.6604805 3.7087898-3.7087898 3.7087898h-.8407364c-.5541954 0-1.0034599.4492645-1.0034599 1.0034599v3.5203743c0 .4572067-.460247.6768608-.8684006.5292206-.0857925-.0310326-.3527603-.0934792-.3527603-.0934792l2.1279907 1.5817719c.4075203.2953949.9678993.0102005.9678993-.4891739v-4.5238304h1.8543968c2.0479889 0 3.7087898-1.6608047 3.7087898-3.7189903v-17.6473198c.0000001-1.6098079-1.0188941-2.9852905-2.4555091-3.4947376z" fill="#7979f7" data-original="#7979f7"></path></g><g opacity=".3"><g opacity=".6"><g><path d="m33.8781815 43.2031097c0-.3696747-.2999306-.6696014-.6696053-.6696014h-3.1075153c-.3696766 0-.6696033.2999268-.6696033.6696014 0 .3696785.2999268.6696053.6696033.6696053h3.1075153c.3696747 0 .6696053-.2999268.6696053-.6696053z" fill="#ffffff" data-original="#ffffff" class=""></path></g></g><g opacity=".6"><g><path d="m28.1340981 43.2031097c0-.3696747-.2999268-.6696014-.6696033-.6696014h-.1871853c-.3696785 0-.6696053.2999268-.6696053.6696014 0 .3696785.2999268.6696053.6696053.6696053h.1871853c.3696765 0 .6696033-.2999268.6696033-.6696053z" fill="#ffffff" data-original="#ffffff" class=""></path></g></g></g><g><path d="m46.9338684 25.5257702v13.428957c0 1.243145-1.0086937 2.2518425-2.2517776 2.2518425h-17.6064625c-1.243082 0-2.2517776-1.0086975-2.2517776-2.2518425v-13.428957c0-1.2430229 1.0086956-2.2517166 2.2517776-2.2517166h17.6064625c1.2430839 0 2.2517776 1.0086937 2.2517776 2.2517166z" fill="#ffffff" data-original="#ffffff" class=""></path></g><g><path d="m37.0403824 23.2740536v5.3491936c0 2.3433838-1.9053268 4.238512-4.2385712 4.238512h-7.9779606v-1.4671478h6.2254295c2.3333073 0 4.2386341-1.8951283 4.2386341-4.238636v-3.8819218z" fill="#e4e3ff" data-original="#e4e3ff" class=""></path></g><g><path d="m46.9338684 25.5257702v13.428957c0 1.243145-1.0086937 2.2518425-2.2517776 2.2518425h-17.6064625c-1.0902233 0-1.9970551-.7743721-2.2008457-1.803463.1935921.050869.3973827.0814667.6011753.0814667h17.6065235c1.2430229 0 2.2517166-1.0086975 2.2517166-2.2517166v-13.4289589c0-.1529827-.0203972-.3057175-.0509338-.4483776.9475669.2649211 1.6506042 1.1309566 1.6506042 2.1702499z" fill="#e4e3ff" data-original="#e4e3ff" class=""></path></g><g><g><path d="m35.8789902 7.3241248v20.1414089c0 2.3414936-1.8981552 4.2396488-4.2396507 4.2396488h-13.9679871l-7.7180634 5.7217622c-.4572515.3389816-1.1055346.0125847-1.1055346-.5566139v-5.1651478h-2.1081051c-2.3414936 0-4.2396493-1.8981552-4.2396493-4.2396488v-20.1414094c0-2.3414936 1.8981557-4.2396493 4.2396493-4.2396493h24.8996906c2.3414951 0 4.2396503 1.8981557 4.2396503 4.2396493z" fill="#f9b938" data-original="#f9b938"></path></g><g opacity=".3"><g><path d="m16.8359127 5.8865595h-.7333241c-.4218864 0-.7641716-.3422847-.7641716-.7641706s.3422852-.7641711.7641716-.7641711h.7333241c.4218864 0 .7641716.3422852.7641716.7641711s-.3422852.7641706-.7641716.7641706z" fill="#ffffff" data-original="#ffffff" class=""></path></g></g><g opacity=".3"><g><path d="m26.3920269 5.8865595h-6.3262978c-.4218864 0-.7641716-.3422847-.7641716-.7641706s.3422852-.7641711.7641716-.7641711h6.3262978c.4218864 0 .7641716.3422852.7641716.7641711s-.3422852.7641706-.7641716.7641706z" fill="#ffffff" data-original="#ffffff" class=""></path></g></g><g opacity=".3"><g><path d="m4.5912709 24.8495369c-.421886 0-.7641709-.3422852-.7641709-.7641716v-7.0347481c0-.4218864.3422849-.7641716.7641709-.7641716s.7641706.3422852.7641706.7641716v7.0347481c.0000001.4218864-.3422846.7641716-.7641706.7641716z" fill="#ffffff" data-original="#ffffff" class=""></path></g></g><g opacity=".3"><g><path d="m4.5912709 14.8058653c-.421886 0-.7641709-.3422852-.7641709-.7641706v-.7950163c0-.4218864.3422849-.7641706.7641709-.7641706s.7641706.3422842.7641706.7641706v.7950163c.0000001.4218854-.3422846.7641706-.7641706.7641706z" fill="#ffffff" data-original="#ffffff" class=""></path></g></g><g><path d="m35.8789902 7.3231111v20.1435623c0 2.3408642-1.8976479 4.2385101-4.238512 4.2385101h-13.9691258l-7.7130384 5.726305c-.4584522.3361893-1.1105595.0102005-1.1105595-.5604401v-1.3856812l6.7211847-4.9876461c.2272511-.1686382.5027294-.2596855.785717-.2596855h13.5332298c2.3409309 0 4.238636-1.8977013 4.238636-4.238636v-20.1434368c0-.8865576-.2751236-1.7117972-.7437744-2.3945012 1.4773484.6623063 2.4962426 2.1397776 2.4962426 3.8616495z" fill="#ecb021" data-original="#ecb021"></path></g><g><path d="m6.5753288 25.0589504v-15.3281183c0-1.419733 1.1509213-2.5706549 2.5706549-2.5706549h20.0872688c1.419735 0 2.5706558 1.1509218 2.5706558 2.5706549v15.3281183c0 1.419733-1.1509209 2.5706558-2.5706558 2.5706558h-20.0872688c-1.4197335 0-2.5706549-1.1509227-2.5706549-2.5706558z" fill="#ffffff" data-original="#ffffff" class=""></path></g><g><path d="m31.8033142 9.7329073v15.3242102c0 1.4263535-1.1513557 2.5676346-2.5676346 2.5676346h-20.0926285c-1.1512938 0-2.119256-.7437744-2.4555082-1.7932644.1528587.0305958.3158545.0406704.4789124.0406704h20.0823669c1.4162788 0 2.5676346-1.1513557 2.5676346-2.5777073v-15.3242112c0-.2649226-.0407963-.5298448-.1120644-.7743697 1.1920901.2241268 2.0989218 1.2736182 2.0989218 2.5370374z" fill="#e4e3ff" data-original="#e4e3ff" class=""></path></g><g fill="#474646"><path d="m22.4256058 19.081337c-.5141697.8247414-1.2227345 1.4263306-2.1279945 1.8024673l1.2445889 1.3711166c.1127262.1127262.1690903.249609.1690903.4094963.009201.1610374-.0471611.3013687-.1690903.424448-.1230774.1219273-.2691612.184042-.4382515.184042-.1794415 0-.3301258-.0759163-.452055-.2266026l-1.541357-1.8369751c-.2358036.036808-.5176201.0563622-.8477459.0563622-.9892292 0-1.8565311-.2162495-2.6007528-.6499004-.7442226-.4336491-1.319356-1.0317879-1.7242498-1.7955647-.406044-.7626286-.6176929-1.6391315-.636097-2.6295109.018404-.9892292.2300529-1.8657322.636097-2.6283588.4048939-.7637768.9800272-1.3619156 1.7242498-1.7955656.7442217-.4325008 1.6115236-.6499014 2.6007528-.6499014s1.854229.2174006 2.5938511.6499014c.7396221.43365 1.3147545 1.0340891 1.7242489 1.8024673.4094963.7683783.6245956 1.642581.6429996 2.6214571-.0184041 1.1031056-.285267 2.06703-.7982846 2.8906213zm-2.1981602.4739094c.5555782-.3393288.9800282-.8005867 1.2721958-1.384922s.4382515-1.2445869.4382515-1.9796085c0-.7338696-.1460838-1.3941221-.4382515-1.9784584-.2921677-.5843353-.7166176-1.0455923-1.2721958-1.3849211-.5555782-.3393278-1.2112312-.5084171-1.9646549-.5084171-.7637768 0-1.4205799.1690893-1.9715576.5084171-.5509768.3393288-.9731255.8005857-1.2652931 1.3849211-.2921677.5843363-.4382515 1.2445889-.4382515 1.9784584 0 .7350216.1460838 1.3952732.4382515 1.9796085s.7143164 1.0455933 1.2652931 1.384922c.5509777.3393288 1.2077808.5084171 1.9715576.5084171.7534237 0 1.4090767-.1690884 1.9646549-.5084171z" fill="#474646" data-original="#474646" class=""></path><path d="m21.1038418 23.5229282c-.2529297 0-.4765625-.1103516-.6464844-.3188477l-1.4492188-1.7280273c-.2207031.0263672-.4707031.0395508-.7451172.0395508-1.0302734 0-1.9472656-.2299805-2.7265635-.684082-.7822266-.4555664-1.3945313-1.0927734-1.8193359-1.894043-.4228516-.7939453-.6464844-1.7167969-.6650391-2.7421875.0185547-1.0336924.2421875-1.9560556.6650391-2.7504892.4248047-.800293 1.0371094-1.4379883 1.8193359-1.894043.781251-.4541016 1.6992197-.684082 2.7265635-.684082s1.9423828.2299805 2.7197266.684082c.7783203.4570313 1.3896484 1.0966797 1.8183594 1.9008789.4267578.8007813.6533203 1.7207031.6728516 2.734376-.0195313 1.152832-.3007813 2.168457-.8369141 3.027832-.4775391.7675781-1.1240234 1.3569336-1.9248047 1.7553711l1.015625 1.1176758c.1494141.1503906.2333984.3530273.2333984.5776367.0126953.2197266-.0683594.4262695-.2412109.6005859-.1708984.1689454-.383789.2578125-.6162109.2578125zm-1.8925781-2.5820312 1.6318359 1.9448242c.15625.190918.3691406.1782227.5234375.0258789.0703125-.0712891.0996094-.1435547.0947266-.2333984 0-.1069336-.0302734-.1811523-.0957031-.2470703l-1.4921875-1.6420898.328125-.1362305c.8505859-.3535156 1.5273438-.9262695 2.0117188-1.7036133.4873047-.78125.7431641-1.7109375.7607422-2.7626953-.0175781-.9248056-.2246094-1.7690439-.6142578-2.4995127-.3847656-.722168-.9326172-1.2954102-1.6298828-1.7045898-.6992188-.4086914-1.5292969-.6157227-2.4667969-.6157227-.9384766 0-1.7714844.2075195-2.4746103.6162109-.7011719.4082031-1.2490234.9794922-1.6298828 1.6967773-.3857422.7241211-.5898438 1.5708008-.6064453 2.515626.0166016.9370117.2207031 1.7836914.6064453 2.5073242.3808594.7182617.9296875 1.2890625 1.6298828 1.6972656.7011728.4086914 1.5341806.6157227 2.4746103.6157227.3095703 0 .5820313-.0180664.8095703-.0532227zm-.9482422-.6274414c-.8076172 0-1.515625-.1835938-2.1025391-.5454102-.5908213-.3637695-1.0478525-.8637695-1.3583994-1.4858398-.3085938-.6176758-.4648438-1.3212891-.4648438-2.0913086 0-.7700205.15625-1.4736338.4648438-2.090333.3115234-.6225586.7675781-1.1225586 1.3583994-1.4863281.5869141-.3618164 1.2949219-.5454102 2.1025391-.5454102.7978516 0 1.5029297.1831055 2.0947266.5449219.5947266.3637695 1.0537109.8637695 1.3652344 1.4868164.3085938.6166992.4648438 1.3203125.4648438 2.090333 0 .7700195-.15625 1.4736328-.4648438 2.0913086-.3105469.6225586-.7705078 1.1225586-1.3642578 1.4863281h-.0009767c-.5917968.3618164-1.296875.5449219-2.0947265.5449219zm0-7.7446299c-.7138672 0-1.3330078.1586914-1.8408203.4711914-.5097666.3139648-.9042978.7460938-1.1728525 1.2841797-.2734375.546875-.4121094 1.1748047-.4121094 1.8667002 0 .6918945.1386719 1.3203125.4121094 1.8676758.2685547.5375977.6630859.9697266 1.1728525 1.2836914.5078125.3125 1.1269531.4711914 1.8408203.4711914.7050781 0 1.3222656-.1586914 1.8349609-.4716797.5126953-.3139648.9091797-.7456055 1.1777344-1.2832031.2734375-.5473633.4121094-1.1757813.4121094-1.8676758 0-.6918955-.1386719-1.3198252-.4121094-1.8667002-.2685547-.5380859-.6650391-.9697266-1.1787109-1.2836914-.5117188-.3129883-1.1289063-.4716797-1.8339844-.4716797z" fill="#474646" data-original="#474646" class=""></path></g></g><g fill="#474646"><path d="m42.4949608 36.2991943c0 .15522-.0517426.2855682-.1532326.3920326-.1024857.1054726-.2348251.1582108-.3970108.1582108-.1144257 0-.2189026-.0298538-.3124352-.0915413-.0935287-.0606956-.1651726-.1442795-.2139282-.2507439l-.7950134-1.907444h-4.1561737l-.7950172 1.907444c-.0487556.1064644-.1203957.1900482-.2139282.2507439-.0935326.0616875-.1980095.0915413-.3124352.0915413-.1631813 0-.295517-.0527382-.3970108-.1582108-.10149-.1064644-.1532326-.2368126-.1532326-.3920326 0-.0646782.0208969-.1462669.0616913-.2437782l3.1173782-7.3611145c.0656738-.1462669.1572151-.2666645.2756195-.3601952.1184082-.0935326.2626839-.1402969.4338264-.1402969h.1223869c.1711426 0 .3154182.0467644.4338264.1402969.1184082.0935307.2099495.2139282.2756195.3601952l3.1173782 7.3611145c.0407946.0975113.0616915.1791.0616915.2437782zm-3.9492111-6.6874904-1.6507301 3.9740849h3.3004646z" fill="#474646" data-original="#474646" class=""></path><path d="m41.9446602 37.0995865c-.1650391 0-.3164063-.0449219-.4501953-.1333008-.1318359-.0849609-.234375-.2050781-.3037109-.3549805l-.734375-1.7617188h-3.8222656l-.7314453 1.7539063c-.0722656.1577148-.1748047.277832-.3085938.3642578-.3154297.2080078-.7724609.1611328-1.0253906-.1030273-.1484375-.1547852-.2226563-.3447266-.2226563-.5654297 0-.1000977.0263672-.2114258.0810547-.3408089l3.1171875-7.3618259c.0839844-.1870117.2011719-.3398438.3505859-.4584961.1630859-.1289063.3613281-.1943359.5888672-.1943359h.1230469c.2275391 0 .4257813.0654297.5888672.1938477.1494141.1191406.2666016.2719727.3486328.4545898l3.1191406 7.3657207c.0546875.1313477.0820313.2431641.0820313.3413086 0 .2202148-.0751953.4101563-.2226563.5644531-.1503906.1547852-.3496094.2358399-.578125.2358399zm-5.6445313-2.75h4.4902344l.8583984 2.0615234c.0253906.0546875.0654297.1020508.1191406.1367188.0537109.035656.109375.0517578.1767578.0517578.1240234 0 .1835938-.046875.2177734-.0825195.0566406-.0585823.0830078-.128418.0830078-.2177734 0-.0073242-.0019531-.0498047-.0429688-.1464844l-3.1171875-7.3608379c-.046875-.105957-.1132813-.1933594-.2001953-.262207-.0732422-.0576172-.1640625-.0859375-.2783203-.0859375h-.1230469c-.1142578 0-.2050781.0283203-.2783203.0864258-.0869141.0683594-.1533203.1557617-.2021484.2661133l-3.1152344 7.3569317c-.0390625.0913086-.0419922.1347656-.0419922.1459961 0 .090332.0263672.1601563.0830078.2197266.0332031.0341797.0927734.0805664.2167969.0805664.0673828 0 .1230469-.0161018.1748047-.050293.0556641-.0361328.0957031-.0834961.1240234-.1459961zm4.2695313-.5136719h-4.0498047l2.0263672-4.8759747zm-3.2998047-.5h2.5517578l-1.2753906-3.0722637z" fill="#474646" data-original="#474646" class=""></path></g></g></g></svg>